<?xml version="1.0" encoding="UTF-8"?>
<svg xmlns="http://www.w3.org/2000/svg" xmlns:xlink="http://www.w3.org/1999/xlink" width="98px" height="65px" viewBox="0 0 97 65" version="1.1">
<g id="surface1">
<path style=" stroke:none;fill-rule:nonzero;fill:rgb(9.411765%,46.666667%,94.901961%);fill-opacity:1;" d="M 70.054688 32.5 C 70.054688 20.535156 60.40625 10.832031 48.5 10.832031 C 36.59375 10.832031 26.945312 20.535156 26.945312 32.5 C 26.945312 43.316406 34.828125 52.277344 45.132812 53.902344 L 45.132812 38.761719 L 39.660156 38.761719 L 39.660156 32.5 L 45.132812 32.5 L 45.132812 27.726562 C 45.132812 22.296875 48.351562 19.296875 53.273438 19.296875 C 55.632812 19.296875 58.097656 19.71875 58.097656 19.71875 L 58.097656 25.050781 L 55.382812 25.050781 C 52.703125 25.050781 51.867188 26.722656 51.867188 28.4375 L 51.867188 32.5 L 57.847656 32.5 L 56.890625 38.761719 L 51.867188 38.761719 L 51.867188 53.902344 C 62.171875 52.277344 70.054688 43.316406 70.054688 32.5 "/>
<path style=" stroke:none;fill-rule:nonzero;fill:rgb(100%,100%,100%);fill-opacity:1;" d="M 56.890625 38.761719 L 57.847656 32.5 L 51.867188 32.5 L 51.867188 28.4375 C 51.867188 26.722656 52.703125 25.050781 55.382812 25.050781 L 58.097656 25.050781 L 58.097656 19.71875 C 58.097656 19.71875 55.632812 19.296875 53.273438 19.296875 C 48.351562 19.296875 45.132812 22.296875 45.132812 27.726562 L 45.132812 32.5 L 39.660156 32.5 L 39.660156 38.761719 L 45.132812 38.761719 L 45.132812 53.902344 C 36.691406 55.566406 28.070312 52.066406 23.148438 44.980469 C 18.226562 37.890625 17.925781 28.550781 22.386719 21.160156 C 26.84375 13.769531 35.222656 9.71875 43.75 10.832031 C 44.898438 10.832031 46.023438 10.742188 47.117188 10.570312 L 47.117188 38.761719 L 56.890625 38.761719 "/>
</g>
</svg>
