<?xml version="1.0" encoding="UTF-8"?>
<svg xmlns="http://www.w3.org/2000/svg" xmlns:xlink="http://www.w3.org/1999/xlink" width="73px" height="65px" viewBox="0 0 72 65" version="1.1">
<g id="surface1">
<path style=" stroke:none;fill-rule:nonzero;fill:rgb(16.470588%,41.960784%,70.196078%);fill-opacity:1;" d="M 71.703125 60.195312 C 71.703125 61.695312 70.515625 62.746094 69.03125 62.746094 C 67.546875 62.746094 66.359375 61.546875 66.359375 60.195312 C 66.359375 58.695312 67.546875 57.644531 69.03125 57.644531 C 70.515625 57.644531 71.703125 58.84375 71.703125 60.195312 M 67.101562 60.195312 C 67.101562 61.398438 67.992188 62.296875 69.03125 62.296875 C 70.21875 62.296875 70.960938 61.398438 70.960938 60.195312 C 70.960938 58.996094 70.21875 58.09375 69.03125 58.09375 C 67.84375 58.09375 67.101562 59.144531 67.101562 60.195312 M 68.734375 61.546875 L 68.140625 61.546875 L 68.140625 58.996094 L 69.179688 58.996094 C 69.625 58.996094 69.921875 58.996094 70.070312 59.144531 C 70.21875 59.296875 70.367188 59.445312 70.367188 59.746094 C 70.367188 60.046875 70.21875 60.195312 69.921875 60.347656 C 70.21875 60.496094 70.367188 60.644531 70.367188 60.945312 C 70.367188 61.398438 70.515625 61.546875 70.515625 61.546875 L 69.921875 61.546875 C 69.921875 61.398438 69.773438 61.246094 69.773438 60.945312 C 69.773438 60.644531 69.625 60.496094 69.179688 60.496094 L 68.882812 60.496094 C 68.734375 60.496094 68.734375 61.546875 68.734375 61.546875 Z M 68.734375 60.046875 L 69.03125 60.046875 C 69.328125 60.046875 69.625 59.894531 69.625 59.746094 C 69.625 59.445312 69.476562 59.296875 69.03125 59.296875 L 68.734375 59.296875 Z M 68.734375 60.046875 "/>
<path style=" stroke:none;fill-rule:nonzero;fill:rgb(100%,100%,100%);fill-opacity:1;" d="M 23.753906 4.804688 L 9.5 21.765625 L 9.5 46.984375 L 23.011719 45.035156 C 23.011719 45.035156 25.535156 44.585938 25.832031 46.984375 C 25.980469 49.6875 23.605469 49.6875 23.605469 49.6875 L 9.5 52.089844 L 9.5 57.34375 L 39.488281 62.898438 L 39.488281 22.515625 C 39.636719 22.515625 23.753906 4.804688 23.753906 4.804688 Z M 30.878906 39.179688 C 29.394531 41.132812 27.167969 42.484375 24.792969 42.632812 L 24.347656 42.632812 C 21.824219 42.632812 19.597656 41.433594 17.960938 39.480469 C 16.328125 37.527344 15.289062 34.828125 15.140625 31.972656 L 15.140625 31.222656 C 15.140625 28.371094 16.03125 25.667969 17.515625 23.71875 C 19.003906 21.765625 21.230469 20.414062 23.605469 20.265625 L 24.050781 20.265625 C 26.574219 20.265625 28.800781 21.464844 30.433594 23.417969 C 32.066406 25.371094 33.105469 28.070312 33.253906 30.921875 L 33.253906 31.675781 C 33.253906 34.527344 32.363281 37.078125 30.878906 39.179688 "/>
<path style=" stroke:none;fill-rule:nonzero;fill:rgb(100%,100%,100%);fill-opacity:1;" d="M 45.574219 40.082031 L 45.574219 49.839844 L 52.699219 48.636719 L 52.699219 39.179688 Z M 28.949219 24.46875 C 27.613281 22.816406 25.832031 21.917969 23.902344 21.917969 L 23.605469 21.917969 C 21.675781 22.066406 20.042969 22.96875 18.855469 24.617188 C 17.664062 26.269531 16.773438 28.523438 16.773438 31.074219 L 16.773438 31.675781 C 16.921875 34.226562 17.8125 36.476562 19.152344 38.128906 C 20.488281 39.78125 22.269531 40.679688 24.199219 40.679688 L 24.496094 40.679688 C 26.425781 40.53125 28.058594 39.628906 29.246094 37.980469 C 30.433594 36.328125 31.324219 34.078125 31.324219 31.523438 L 31.324219 30.921875 C 31.324219 28.371094 30.433594 26.121094 28.949219 24.46875 M 19.003906 31.675781 C 18.855469 27.921875 20.785156 24.617188 23.457031 24.46875 C 21.824219 25.519531 20.785156 28.371094 21.082031 31.523438 C 21.230469 34.828125 22.566406 37.527344 24.347656 38.28125 C 21.527344 38.578125 19.152344 35.578125 19.003906 31.675781 "/>
<path style=" stroke:none;fill-rule:nonzero;fill:rgb(100%,100%,100%);fill-opacity:1;" d="M 55.671875 26.421875 L 55.671875 35.726562 L 61.609375 34.976562 L 61.609375 25.820312 Z M 55.671875 48.035156 L 61.609375 46.984375 L 61.609375 37.828125 L 55.671875 38.730469 Z M 55.671875 48.035156 "/>
<path style=" stroke:none;fill-rule:nonzero;fill:rgb(6.666667%,42.745098%,70.196078%);fill-opacity:1;" d="M 52.253906 0 L 19.597656 0 L 0.296875 22.96875 L 7.125 22.515625 L 7.125 47.4375 L 1.929688 48.035156 C 1.929688 48.035156 -0.59375 48.488281 0 51.1875 C 0.59375 53.140625 2.523438 53.140625 2.523438 53.140625 L 7.125 52.390625 L 7.125 58.996094 L 39.636719 65 L 65.171875 59.144531 L 65.171875 23.117188 L 72.148438 22.515625 C 72 22.367188 52.253906 0 52.253906 0 Z M 45.574219 27.320312 L 52.699219 26.570312 L 52.699219 36.027344 L 45.574219 36.929688 Z M 9.5 57.34375 L 9.5 52.089844 L 23.605469 49.6875 C 23.605469 49.6875 25.980469 49.6875 25.832031 46.984375 C 25.683594 44.585938 23.011719 45.035156 23.011719 45.035156 L 9.5 47.136719 L 9.5 21.765625 L 23.753906 4.804688 L 39.636719 22.515625 L 39.636719 62.746094 Z M 45.574219 49.839844 L 45.574219 40.082031 L 52.699219 39.179688 L 52.699219 48.636719 Z M 61.460938 46.984375 L 55.523438 48.035156 L 55.523438 38.730469 L 61.460938 37.828125 Z M 55.671875 35.726562 L 55.671875 26.421875 L 61.609375 25.820312 L 61.609375 34.976562 C 61.460938 34.976562 55.671875 35.726562 55.671875 35.726562 Z M 30.433594 23.269531 C 28.800781 21.316406 26.574219 20.117188 24.050781 20.117188 L 23.605469 20.117188 C 21.082031 20.265625 19.003906 21.617188 17.515625 23.566406 C 16.03125 25.519531 15.140625 28.222656 15.140625 31.074219 L 15.140625 31.824219 C 15.289062 34.828125 16.328125 37.527344 17.960938 39.332031 C 19.597656 41.28125 21.824219 42.484375 24.347656 42.484375 L 24.792969 42.484375 C 27.316406 42.332031 29.394531 40.980469 30.878906 39.03125 C 32.363281 37.078125 33.253906 34.375 33.253906 31.523438 L 33.253906 30.773438 C 33.105469 27.921875 32.066406 25.21875 30.433594 23.269531 M 29.394531 37.980469 C 28.207031 39.628906 26.425781 40.679688 24.644531 40.679688 L 24.347656 40.679688 C 22.417969 40.679688 20.636719 39.78125 19.300781 38.128906 C 17.960938 36.476562 16.921875 34.226562 16.921875 31.675781 L 16.921875 31.074219 C 16.921875 28.523438 17.664062 26.269531 19.003906 24.617188 C 20.191406 22.96875 21.972656 21.917969 23.753906 21.917969 L 24.050781 21.917969 C 25.980469 21.917969 27.761719 22.816406 29.097656 24.46875 C 30.433594 26.121094 31.472656 28.371094 31.472656 30.921875 L 31.472656 31.523438 C 31.472656 34.078125 30.730469 36.328125 29.394531 37.980469 M 21.082031 31.523438 C 20.933594 28.371094 21.972656 25.519531 23.457031 24.46875 C 20.785156 24.617188 18.707031 27.921875 19.003906 31.675781 C 19.152344 35.578125 21.527344 38.578125 24.199219 38.429688 C 22.566406 37.527344 21.230469 34.828125 21.082031 31.523438 "/>
<path style=" stroke:none;fill-rule:nonzero;fill:rgb(100%,100%,100%);fill-opacity:1;" d="M 45.574219 27.320312 L 52.699219 26.71875 L 52.699219 36.179688 L 45.574219 37.078125 Z M 45.574219 27.320312 "/>
</g>
</svg>
